<svg width="1440" height="316" viewBox="0 0 1440 316" fill="none" xmlns="http://www.w3.org/2000/svg">
<g clip-path="url(#clip0_3559_17152)">
<rect width="1440" height="316" fill="url(#paint0_linear_3559_17152)"/>
<path d="M1524 -46.4875C808.207 95.6699 411.993 707.736 303.36 996L173 933.806C436.089 104.555 1183.29 -398.919 1524 -547V-46.4875Z" fill="url(#paint1_linear_3559_17152)" stroke="url(#paint2_linear_3559_17152)" stroke-width="4"/>
<path d="M1525.56 212.937C1115.51 357.225 807.288 905.838 732.766 1196L663 1162.7C707.396 642.63 1105.38 35.351 1525.56 -29.6581V212.937Z" fill="url(#paint3_linear_3559_17152)" stroke="url(#paint4_linear_3559_17152)" stroke-width="6"/>
</g>
<defs>
<linearGradient id="paint0_linear_3559_17152" x1="-0.0224251" y1="315.998" x2="132.295" y2="-286.968" gradientUnits="userSpaceOnUse">
<stop stop-color="#491C96"/>
<stop offset="1" stop-color="#7839EE"/>
</linearGradient>
<linearGradient id="paint1_linear_3559_17152" x1="172.993" y1="227.08" x2="1306.77" y2="723.349" gradientUnits="userSpaceOnUse">
<stop stop-color="#5720B7"/>
<stop offset="1" stop-color="#7839EE"/>
</linearGradient>
<linearGradient id="paint2_linear_3559_17152" x1="172.979" y1="-546.991" x2="1702.46" y2="792.177" gradientUnits="userSpaceOnUse">
<stop stop-color="#5720B7"/>
<stop offset="1" stop-color="#7839EE"/>
</linearGradient>
<linearGradient id="paint3_linear_3559_17152" x1="662.995" y1="585.22" x2="1430.55" y2="855.261" gradientUnits="userSpaceOnUse">
<stop stop-color="#5720B7"/>
<stop offset="1" stop-color="#7839EE"/>
</linearGradient>
<linearGradient id="paint4_linear_3559_17152" x1="662.987" y1="-29.6505" x2="1816.71" y2="782.287" gradientUnits="userSpaceOnUse">
<stop stop-color="#5720B7"/>
<stop offset="1" stop-color="#7839EE"/>
</linearGradient>
<clipPath id="clip0_3559_17152">
<rect width="1440" height="316" fill="white"/>
</clipPath>
</defs>
</svg>
